# Blender v2.79 (sub 0) OBJ File: ''
# www.blender.org
mtllib cross.mtl
g Plane_Plane.005
v -1.262789 0.000000 4.829205
v 1.281559 0.000000 4.829205
v -1.262789 0.000000 -5.486176
v 1.281559 0.000000 -5.467406
v 0.009385 0.000000 5.495561
v -0.776866 0.000000 5.134227
v 0.814408 0.000000 5.143612
v -0.383741 0.000000 5.352435
v 0.411897 0.000000 5.357128
v -4.904287 0.000000 -1.173164
v 4.923058 0.000000 -1.191934
v -4.510104 0.000000 1.180434
v 4.510104 0.000000 1.180434
v -1.253403 0.000000 -1.180435
v 1.281559 0.000000 -1.180435
v -1.253403 0.000000 1.174685
v 1.281559 0.000000 1.184070
v -4.894902 0.000000 0.003635
v 4.885517 0.000000 -0.005750
v -4.777586 0.000000 0.592035
v 4.772892 0.000000 0.587342
vn 0.0000 1.0000 0.0000
usemtl None
s off
f 1//1 6//1 8//1 5//1 9//1 7//1 2//1 17//1 13//1 21//1 19//1 11//1 15//1 4//1 3//1 14//1 10//1 18//1 20//1 12//1 16//1
