# Blender v2.79 (sub 0) OBJ File: ''
# www.blender.org
mtllib hl.mtl
o Plane
v -4.900912 -0.000000 0.010574
v 4.900912 -0.000000 0.010573
v 4.906776 0.000001 -5.452936
v -4.906776 0.000001 -5.452936
v -0.014146 -0.000001 5.452936
v 0.014146 -0.000001 5.452936
v 0.778158 -0.000001 5.130595
v -0.778158 -0.000001 5.130595
v -4.800702 -0.000000 0.439031
v 4.800702 -0.000000 0.439030
v -4.665648 -0.000000 0.854926
v 4.665648 -0.000000 0.854926
v -4.480814 -0.000000 1.389384
v 4.480814 -0.000000 1.389384
v -3.036033 -0.000001 3.530143
v 3.036033 -0.000001 3.530143
v 3.481737 -0.000000 2.992760
v -3.481737 -0.000000 2.992760
v -3.914320 -0.000000 2.458302
v 3.914320 -0.000000 2.458302
v 4.201181 -0.000000 1.923843
v -4.201181 -0.000000 1.923843
v -1.767251 -0.000001 4.599061
v 1.767251 -0.000001 4.599061
v 2.445118 -0.000001 4.067526
v -2.445118 -0.000001 4.067526
v -4.900912 -0.732160 0.010574
v 4.900912 -0.732160 0.010573
v 4.906776 -0.732159 -5.452936
v -4.906776 -0.732159 -5.452936
v -0.014146 -0.732161 5.452936
v 0.014146 -0.732161 5.452936
v 0.778158 -0.732161 5.130595
v -0.778158 -0.732161 5.130595
v -4.800702 -0.732160 0.439031
v 4.800702 -0.732160 0.439030
v -4.665648 -0.732160 0.854926
v 4.665648 -0.732160 0.854926
v -4.480814 -0.732160 1.389384
v 4.480814 -0.732160 1.389384
v -3.036033 -0.732161 3.530143
v 3.036033 -0.732161 3.530143
v 3.481737 -0.732161 2.992760
v -3.481737 -0.732161 2.992760
v -3.914320 -0.732161 2.458302
v 3.914320 -0.732161 2.458302
v 4.201181 -0.732160 1.923843
v -4.201181 -0.732160 1.923843
v -1.767251 -0.732161 4.599061
v 1.767251 -0.732161 4.599061
v 2.445118 -0.732161 4.067526
v -2.445118 -0.732161 4.067526
vn 0.0000 1.0000 0.0000
vn -0.0000 -1.0000 -0.0000
vn 0.7735 -0.0000 0.6338
vn 0.8329 -0.0000 0.5535
vn -0.4315 0.0000 0.9021
vn -0.1983 0.0000 0.9801
vn -0.5472 0.0000 0.8370
vn -0.6454 -0.0000 0.7639
vn 0.9181 -0.0000 0.3963
vn 0.9481 -0.0000 0.3179
vn -0.8836 0.0000 0.4683
vn -0.8329 -0.0000 0.5535
vn -0.9481 0.0000 0.3179
vn -0.9181 0.0000 0.3963
vn -0.9933 0.0000 0.1152
vn -0.9633 0.0000 0.2685
vn 0.8836 -0.0000 0.4683
vn 0.6454 -0.0000 0.7639
vn 0.7230 -0.0000 0.6908
vn 0.5472 0.0000 0.8370
vn 0.1983 0.0000 0.9801
vn 0.7075 0.0000 -0.7067
vn -0.7075 0.0000 -0.7067
vn 0.9633 -0.0000 0.2685
vn -0.7735 -0.0000 0.6338
vn -0.7230 -0.0000 0.6908
vn 0.9933 -0.0000 0.1152
vn 0.4315 0.0000 0.9021
usemtl None
s 1
f 1//1 2//1 3//1 4//1
f 5//1 6//1 7//1 8//1
f 9//1 10//1 2//1 1//1
f 11//1 12//1 10//1 9//1
f 13//1 14//1 12//1 11//1
f 15//1 16//1 17//1 18//1
f 19//1 20//1 21//1 22//1
f 23//1 24//1 25//1 26//1
f 8//1 7//1 24//1 23//1
f 26//1 25//1 16//1 15//1
f 18//1 17//1 20//1 19//1
f 22//1 21//1 14//1 13//1
f 27//2 30//2 29//2 28//2
f 31//2 34//2 33//2 32//2
f 35//2 27//2 28//2 36//2
f 37//2 35//2 36//2 38//2
f 39//2 37//2 38//2 40//2
f 41//2 44//2 43//2 42//2
f 45//2 48//2 47//2 46//2
f 49//2 52//2 51//2 50//2
f 34//2 49//2 50//2 33//2
f 52//2 41//2 42//2 51//2
f 44//2 45//2 46//2 43//2
f 48//2 39//2 40//2 47//2
f 17//3 43//3 46//4 20//4
f 8//5 34//5 31//6 5//6
f 23//7 49//7 34//5 8//5
f 26//8 52//8 49//7 23//7
f 14//9 40//9 38//10 12//10
f 22//11 48//11 45//12 19//12
f 11//13 37//13 39//14 13//14
f 1//15 27//15 35//16 9//16
f 21//17 47//17 40//9 14//9
f 25//18 51//18 42//19 16//19
f 24//20 50//20 51//18 25//18
f 20//4 46//4 47//17 21//17
f 13//14 39//14 48//11 22//11
f 5//6 31//6 32//21 6//21
f 9//16 35//16 37//13 11//13
f 3//22 29//22 30//23 4//23
f 12//10 38//10 36//24 10//24
f 18//25 44//25 41//26 15//26
f 2//27 28//27 29//22 3//22
f 16//19 42//19 43//3 17//3
f 10//24 36//24 28//27 2//27
f 6//21 32//21 33//28 7//28
f 4//23 30//23 27//15 1//15
f 19//12 45//12 44//25 18//25
f 15//26 41//26 52//8 26//8
f 7//28 33//28 50//20 24//20
