# Blender v2.79 (sub 0) OBJ File: ''
# www.blender.org
mtllib partyPerPale.mtl
o Plane.002
v -4.900912 -0.000000 -0.608856
v -4.906776 0.000001 -5.452936
v -0.014146 -0.000001 5.452936
v 0.014146 -0.000001 5.452936
v -0.778158 -0.000001 5.130595
v -4.800702 -0.000000 0.439031
v -4.665648 -0.000000 0.854926
v -4.480814 -0.000000 1.389384
v -3.036033 -0.000001 3.530143
v -3.481737 -0.000000 2.992760
v -3.914320 -0.000000 2.458302
v -4.201181 -0.000000 1.923843
v -1.767251 -0.000001 4.599061
v -2.445118 -0.000001 4.067526
v 0.000000 0.000001 -5.452936
v -4.888349 -0.000000 -0.084913
vn -0.0000 1.0000 0.0000
usemtl None.002
s off
f 8//1 12//1 11//1 10//1 9//1 14//1 13//1 5//1 3//1 15//1 2//1 1//1 16//1 6//1 7//1
l 3 4
