# Blender v2.79 (sub 0) OBJ File: ''
# www.blender.org
mtllib plain.mtl
g Plane
v -0.014146 0.000000 5.452936
v 0.014146 0.000000 5.452936
v -4.906776 0.000000 -5.452936
v 4.906776 0.000000 -5.452936
v -0.778158 0.000000 5.130595
v 0.778158 0.000000 5.130595
v 4.900912 0.000000 0.010573
v -4.900912 0.000000 0.010574
v -4.800702 0.000000 0.439031
v 4.800702 0.000000 0.439030
v -4.665648 0.000000 0.854926
v 4.665648 0.000000 0.854926
v -3.481737 0.000000 2.992760
v 3.481737 0.000000 2.992760
v 4.201181 0.000000 1.923843
v -4.201181 0.000000 1.923843
v -2.445118 0.000000 4.067526
v 2.445118 0.000000 4.067526
v -1.767251 0.000000 4.599061
v 1.767251 0.000000 4.599061
v 3.036033 0.000000 3.530143
v -3.036033 0.000000 3.530143
v -3.914320 0.000000 2.458302
v 3.914320 0.000000 2.458302
v 4.480814 0.000000 1.389384
v -4.480814 0.000000 1.389384
vn 0.0000 1.0000 0.0000
usemtl None
s 1
f 8//1 7//1 4//1 3//1
f 1//1 2//1 6//1 5//1
f 9//1 10//1 7//1 8//1
f 11//1 12//1 10//1 9//1
f 26//1 25//1 12//1 11//1
f 22//1 21//1 14//1 13//1
f 23//1 24//1 15//1 16//1
f 19//1 20//1 18//1 17//1
f 5//1 6//1 20//1 19//1
f 17//1 18//1 21//1 22//1
f 13//1 14//1 24//1 23//1
f 16//1 15//1 25//1 26//1
